<svg width="720" height="540" viewBox="0 0 720 540" fill="none" xmlns="http://www.w3.org/2000/svg">
  <rect width="720" height="540" rx="34" fill="#FFFDF9"/>
  <rect x="28" y="28" width="664" height="484" rx="26" fill="#FCF7EF" stroke="#E9DECF" stroke-width="2"/>
  <rect x="64" y="66" width="592" height="76" rx="22" fill="#FFFFFF"/>
  <text x="92" y="111" fill="#2F2417" font-family="Arial, sans-serif" font-size="30" font-weight="700">Quick Billing POS</text>
  <rect x="64" y="172" width="286" height="288" rx="24" fill="#FFFDF9" stroke="#E9DECF"/>
  <rect x="94" y="206" width="226" height="50" rx="16" fill="#F4ECE0"/>
  <rect x="94" y="274" width="226" height="50" rx="16" fill="#F4ECE0"/>
  <rect x="94" y="342" width="226" height="50" rx="16" fill="#F4ECE0"/>
  <circle cx="122" cy="231" r="10" fill="#D96D3A"/>
  <circle cx="122" cy="299" r="10" fill="#346B57"/>
  <circle cx="122" cy="367" r="10" fill="#E2A057"/>
  <text x="146" y="238" fill="#2F2417" font-family="Arial, sans-serif" font-size="18">Search products instantly</text>
  <text x="146" y="306" fill="#2F2417" font-family="Arial, sans-serif" font-size="18">Choose payment mode</text>
  <text x="146" y="374" fill="#2F2417" font-family="Arial, sans-serif" font-size="18">Generate GST bill</text>
  <rect x="382" y="172" width="274" height="288" rx="24" fill="#2F2417"/>
  <rect x="410" y="204" width="218" height="48" rx="14" fill="#4B392B"/>
  <rect x="410" y="272" width="218" height="48" rx="14" fill="#4B392B"/>
  <rect x="410" y="340" width="218" height="88" rx="18" fill="#FFF5EB"/>
  <text x="432" y="233" fill="#FFF7EF" font-family="Arial, sans-serif" font-size="18">Customer info</text>
  <text x="432" y="301" fill="#FFF7EF" font-family="Arial, sans-serif" font-size="18">Items and quantities</text>
  <text x="432" y="375" fill="#2F2417" font-family="Arial, sans-serif" font-size="16">Bill total</text>
  <text x="432" y="414" fill="#D96D3A" font-family="Arial, sans-serif" font-size="34" font-weight="700">₹2,840</text>
</svg>
